<svg xmlns="http://www.w3.org/2000/svg" xmlns:v="https://vecta.io/nano" fill="#fefefe" viewBox="80.61 80.69 638.66 638.64"><path d="M456.35 81.36c21.26-3.21 43.75 5.25 58.13 21.15 8.74 9.27 14.63 20.68 22.1 30.91 3.8 5.15 8.03 10.82 14.56 12.5 12.74 3.24 26.04 1.22 38.98 2.66 11.84 1.13 23.6 4.98 33.15 12.19 12.55 9.59 21.52 23.74 24.81 39.2 3.06 13.42 1.74 27.34 3.97 40.87.87 5.35 2 11.11 6.01 15.08 5.85 5.78 13.41 9.33 20.25 13.76 12.39 7.39 25.03 15.92 31.93 29.04 8.11 15.89 10.06 35.06 4.54 52.1-4.63 15.35-14.79 28.34-19.28 43.74-2.01 6.6 1 13.25 3.7 19.18 5.45 11.43 13.72 21.51 17.27 33.84 8.16 25.12-2.16 54.08-22.53 70.31-11.92 9.58-26.21 16.06-37 27.07-2.77 2.91-3.29 7.07-4.01 10.85-2.25 14.67.62 29.76-2.78 44.3-4.87 23.36-25.15 41.39-47.72 47.31-16.39 4.44-33.81 1.11-50.14 5.81-4.79 1.27-8.8 4.48-11.52 8.55-9.33 13.6-16.11 29.23-28.34 40.64-9.29 8.71-21.77 13.01-34.14 14.94-11.85 1.7-24.11 0-35.15-4.56-8.75-3.62-16.96-8.37-25.51-12.42-6.74-3.38-14.35-7.14-22.04-4.72-15.22 4.47-27.25 15.88-42.47 20.45-13.54 5-28.66 3.86-41.98-1.29-12.29-4.43-22.92-12.83-30.67-23.29-8.23-11.12-14.51-23.76-24.4-33.6-3.56-3.65-8.75-4.88-13.67-5.26-14.43-1.08-29.15.59-43.35-2.72-21.05-4.83-37.81-22.08-44.95-42.07-6.68-18.36-2.73-38.41-7.81-57.08-1.19-4.59-4.88-7.84-8.58-10.49-12.15-8.64-26.46-14.25-37.17-24.86-9.78-9.29-16.2-22-17.86-35.39-1.38-10.83-.44-21.99 3.06-32.35 4.14-12.72 11.76-23.9 16.77-36.25 1.82-4.76 3.48-10 2.16-15.11-1.32-5.2-3.89-9.96-6.42-14.65-6.51-11.62-13.88-23.14-16.57-36.39-3.97-19.93 3.46-40.92 16.78-55.86 10.28-11.86 25-18.26 37.16-27.84 4.03-3.26 8.93-6.53 9.97-12 4.02-17.63.04-36.21 5.34-53.64 5.25-18.49 20.27-33.05 37.71-40.4 13.71-5.77 28.82-5.7 43.41-6.68 6.25-.51 12.75-.67 18.59-3.23 4.02-1.75 6.75-5.33 9.3-8.74 8.64-11.55 14.08-25.33 24.21-35.78 9.36-10.2 22.35-16.93 36.09-18.6 12.08-1.38 24.52-.05 35.88 4.35 10.49 4.09 20.13 9.98 30.31 14.72 4.26 1.86 8.71 3.71 13.43 3.8 5.19-.27 9.88-2.85 14.44-5.13 13.56-7.19 26.65-16.19 42.05-18.92m-84.9 32.27c-10.72.87-21.33 2.72-31.84 4.99-36.43 7.89-71.57 22.43-102.22 43.76-23.89 16.26-44.86 36.59-62.8 59.2-46.46 57.57-68.4 133.91-60.76 207.39 4.33 44.57 19.6 87.9 43.45 125.75 16.66 26.84 38.55 50.18 63.28 69.75 26.31 21.27 56.24 38.22 88.53 48.53 46.41 15.16 96.64 18.64 144.67 9.76 31.29-5.64 61.35-17.25 88.84-33.14 28.85-16.22 54.89-37.48 76.17-62.86 49.26-57.21 74.82-134.51 68.1-209.82-3.38-38.24-13.98-75.92-31.75-109.99-15.57-30.15-36.35-57.77-62-80.07-26.7-23.86-57.53-43.19-91.01-55.98-41.42-15.94-86.55-21.14-130.66-17.27zm15.02 4c50.27-3.02 101.23 8.47 145.59 32.26 33.56 17.68 63.72 41.95 87.55 71.51 20.9 26.15 37.75 55.72 48.43 87.51 11.35 35.04 16.06 72.19 14.48 108.96-2.03 38.17-12.74 75.68-29.95 109.74-16.05 31.26-37.89 59.46-63.65 83.31-24.37 22.06-52.93 39.29-83.35 51.64-17.55 7.04-35.76 12.53-54.43 15.65-16.89 2.82-34 4.27-51.12 4.63-41.21.75-82.29-8.97-119.57-26.33-30.93-14.48-58.78-35.02-83.15-58.84-22.69-22.7-40.72-49.82-54.16-78.9-17.27-37.43-25.61-78.67-26.28-119.79-.23-41.32 9.93-82.36 27.37-119.69 13.91-29.89 33.38-57.1 56.7-80.36 23.68-24.11 52.35-43.01 83.01-57.03 32.2-14.63 67.3-22.25 102.53-24.27m-7 6.96c-27.06 1.85-53.86 7.72-79.07 17.77-35.3 13.72-68.04 34.37-94.85 61.19-22.58 22.27-40.95 48.66-54.78 77.16-19.54 39.98-28.28 84.87-26.9 129.26.86 28.07 6.03 56.05 15.74 82.42 5.95 16.55 13.75 32.36 22.33 47.68 3.22 7.01 16.14 7.02 18.19-.91 2.73-8.28 2.39-17.51 6.78-25.23 2.14-3.96 6.68-6.05 11.07-5.96 8.98-.47 17.12 4.65 26.05 4.46 3.88-.03 5.84-4.05 6.12-7.42 1.03-6.95-3.32-12.91-6.25-18.8-11.34-23.3-18.24-48.84-19.53-74.75-1.96-33.27 3.93-67.25 18.94-97.14 15.16-31.18 38.97-57.95 67.75-77.21 28-19.01 60.95-31.01 94.84-32.83 33.15-2.27 67.07 3.27 97.11 17.73 31.36 14.81 58.93 37.76 78.54 66.43 19.58 28.07 31.11 61.48 33.62 95.58 3.22 35.43-2.97 72-19.62 103.58-2.62 5.14-6.97 10.22-5.93 16.39.45 4.2 3.93 8.24 8.39 8.06 7.96-.24 15.01-4.95 22.98-5.3 4.59-.51 9.58 1.02 12.36 4.89 5.95 7.97 5.96 18.43 9.71 27.34 2.45 6.14 12.62 6.56 15.36.43 8.71-15.27 16.47-31.15 22.29-47.75 12.02-33.76 16.57-69.92 15.32-105.65-1.54-40.92-13.26-81.22-32.95-117.05-17.78-32.92-42.16-62.31-71.59-85.46-27.11-21.3-58.09-37.8-91.05-47.98-32.61-9.76-67.05-12.91-100.97-10.93m-1.06 87.02c-27.05 2.92-53.24 12.4-76.58 26.27-28.97 18.25-54.31 43.33-69.72 74.16-15.92 31.51-24.69 67.4-20.9 102.76 1.66 18.37 5.52 36.6 12.15 53.84 10.77 28.53 29.37 53.72 51.92 74.06 15.82 14.18 34.42 25.08 54.14 32.88 17.06 6.88 35.03 11.66 53.35 13.47 15.76 1.56 31.64.2 47.24-2.19 20.11-3.24 39.8-9.46 57.81-19.03 13.86-7.2 26.54-16.47 38.22-26.8 10.94-9.75 21.02-20.54 29.41-32.58 20.95-29.51 32.15-65.39 34.14-101.37.4-22.58-2.99-45.26-9.85-66.77-9.59-30.32-28.08-57.25-50.97-79.09-26.82-25.34-61.52-41.92-97.78-48.22-17.34-3.06-35.09-2.89-52.58-1.39M262.36 572.38l-20.51 33.23 8.39 5.37c5.14-7.61 9.38-15.8 14.93-23.13-1.24 9.77-3.69 19.33-5.39 29.03 2.36 1.5 4.65 3.21 7.28 4.26 2.01-.33 3.59-1.77 5.2-2.91 6.5-5.16 13.02-10.31 19.82-15.07-4.82 8.3-10.53 16.05-14.94 24.59l8.5 5.12c8.41-14.04 17.64-27.57 25.73-41.8L301 584.6c-10.16 6.72-18.98 15.27-29.35 21.68 1.87-11.89 4.85-23.58 6.89-35.44-3.43-2.38-6.8-4.94-10.65-6.61-2.34 2.34-3.81 5.36-5.53 8.15m242.05 6.79l8.8 52.32c3.23-1.7 6.37-3.58 9.46-5.53a241.31 241.31 0 0 1-2.46-14.59c4.91-2.72 9.22-6.71 14.64-8.37 4.14 2.12 7.52 5.42 11.25 8.17 3.23-1.92 6.42-3.92 9.5-6.06L513 573.97l-8.59 5.2M332.66 601.7c-10.08 12.12-20.28 24.14-29.86 36.67 3.34 1.12 6.72 2.14 10.11 3.12 3.1-3.77 6.07-7.64 9.28-11.32l16.36 5.08.88 14.41c3.58 1.18 7.18 2.31 10.8 3.37-.99-17.64-2.98-35.2-4.18-52.83-3-.88-5.95-1.98-9.04-2.43-1.76.91-3.05 2.47-4.35 3.93m118.55 1.35l15.93 46.39c11.42-3.56 22.63-7.77 34-11.48-.94-2.84-1.78-5.75-3.25-8.36-8.08 2.07-15.75 5.51-23.79 7.76-4.48-12.51-8.19-25.29-13.3-37.57l-9.59 3.26m-79.12 2.26c-2.31 16.26-3.11 32.69-4.53 49.05l10.09.86c1.13-10.55 1.33-21.19 3.21-31.64l19.59 33.87 10.36.62 4.09-48.97c-3.33-.26-6.66-.47-9.99-.57-1.34 10.5-1.56 21.1-3.01 31.59-6.78-11.02-12.94-22.41-19.2-33.72l-10.61-1.09m55.22 1.48c2.3 16.24 5 32.43 7.67 48.61 3.4-.42 6.79-.95 10.17-1.49-2.04-16.3-5-32.47-7.47-48.7l-10.37 1.58z"/><path d="M363.97 133.14l33.1-2.17c.24 3.64.41 7.29.46 10.94-7.88.28-15.75.91-23.62 1.48.11 5.11.43 10.21.71 15.32 7.58-.09 15.11-1.08 22.69-1.18l.68 10.57c-7.37.64-14.76 1.16-22.15 1.5-.11 5.86.44 11.7.74 17.54 8.47-.12 16.89-1.1 25.35-1.46l.54 10.61c-11.32 1.15-22.68 1.82-34.04 2.52l-4.46-65.67zm76.08.96l8.47 1.78c-2.26 13.21-5.29 26.28-8.23 39.35-.81 4.56-1.52 9.57.64 13.88 2.26 4.81 9.92 4.88 12.8.66 2.95-4.14 3.83-9.3 4.83-14.17 2.08-12.04 5.19-23.86 7.61-35.83l8.68 1.54c-2.17 12.34-5.37 24.46-7.66 36.78-1.75 7.88-3.58 16.59-9.9 22.19-6.85 5.86-18.22 4.1-23.39-3.15-5.7-7.55-3.66-17.75-2.01-26.34 3.12-12.14 5.35-24.48 8.16-36.69zm-121.6 9.57l8.46-2.2c5.02 17.51 9.64 35.13 14.21 52.76 6.61-1.45 13.1-3.35 19.64-5.05.93 3.53 1.84 7.08 2.64 10.65l-27.52 7.37c-6.68-20.93-11.58-42.37-17.43-63.53zM496.11 149l7.27 3.05c.26 15.35-.41 30.7-.91 46.04 6.44-12.29 11.93-25.05 17.78-37.63 2.67.97 5.47 1.84 7.76 3.59-.33 1.25-.81 2.45-1.31 3.64l-26 55.83-7.75-3.37.81-44.68c-6.65 11.76-11.74 24.32-17.4 36.56-2.75-1.04-5.47-2.18-8.18-3.31L496.11 149zm-217.93 11.02l7.84-3.51c8.04 16.31 14.93 33.15 22.39 49.73 6.36-2.21 12.34-5.35 18.62-7.78 1.46 3.1 3.09 6.15 3.97 9.49-1.71 1.45-3.81 2.32-5.83 3.23-6.88 2.94-13.6 6.24-20.63 8.81-8.47-20.13-17.84-39.86-26.36-59.97zm263.55 12.82l7.69 4.32c-11.2 18.89-23.89 36.85-35.55 55.45-2.59-1.51-5.15-3.08-7.7-4.66l35.56-55.11zm-297.67 8.43c1.81-1.8 3.97-3.17 6.03-4.65 17.89 14.01 34.99 28.99 52.41 43.57l-7.61 5.8c-5.25-4-10-8.58-15-12.87-3.79 2.88-8.26 5.09-11.25 8.88 1.65 6.07 4.69 11.65 6.57 17.65l-7.45 5.07c-7.57-18.2-14.12-36.8-21.3-55.15-.98-2.7-2.25-5.39-2.4-8.3m13.3 12.49c2.17 5.92 4.53 11.78 6.86 17.65 2.51-1.65 4.98-3.37 7.4-5.16-4.66-4.27-9.38-8.48-14.26-12.49zM558.05 188c.69-1.22 1.4-2.58 2.8-3.12 2.45 1.84 7.4 4.48 5.16 8.13-7.08 13.2-14.82 26.06-21.35 39.55 6.1-2.93 11.39-7.2 17.02-10.9 7.77-5.12 15.2-10.77 23.15-15.63 2.21 2.07 4.38 4.19 6.45 6.41l-56.38 37.31c-2.1-1.82-4.14-3.69-6.15-5.6l29.3-56.15zm-355.5 29.59c2.3-7.01 9.95-11.62 17.23-10.33 5.5.59 9.85 4.34 13.99 7.66l-5.03 6.99c-2.83-1.8-5.47-4.19-8.83-4.89-3.4-.23-6.62 2.17-7.96 5.2-1.79 4.57 1.94 10.57 7.03 10.33 4.05-.41 7.4-2.95 11.02-4.57 5.1-2.66 11.39-3.14 16.65-.63 8.39 3.91 14.66 13.22 13.49 22.65-1.09 8.54-9.66 15.09-18.16 14.32-6.83-.06-12.1-4.93-16.98-9.1l5.04-6.68c2.92 1.95 5.64 4.49 9.15 5.34 4.36.66 9.48-1.64 10.91-6.04 1.94-5.56-3.07-12.29-9.04-11.61-6.87.64-12.07 6.54-19.09 6.71-12.26.21-23.82-13.29-19.42-25.35zm179.89 1.06c31.06-3.71 62.96 1.6 91.43 14.42 16.11 7.35 31.48 16.53 44.93 28.1 21.53 18.9 39.19 42.48 49.96 69.1 8.61 21.15 12.88 43.89 13.88 66.65.71 16.98-2.1 33.91-6.4 50.3-8.19 30.75-24.06 59.79-47.18 81.85-23.12 23.09-52.42 40.14-84.32 47.63-25 5.85-51.23 7.87-76.6 3.21-30.5-5.53-59.66-18.78-83.66-38.42-26.18-22.29-47.31-51.18-57.76-84.14-6.53-20.09-9.57-41.28-9.46-62.38.78-32.87 11.41-65.16 28.67-93.02 16.75-27.04 41.21-49 69.37-63.64 20.68-11.22 43.82-17.32 67.14-19.66m-24.25 10.55c-29.65 7.36-57.47 22.31-79.69 43.31-26.83 25.21-44.99 59.31-51.52 95.5-3.65 23.11-3.51 46.95 1.13 69.91 8.61 38.01 29.84 73.19 59.98 97.99 26.83 22.02 60.33 35.86 94.87 39.25 35.56 2.92 72.19-4.24 103.31-21.93 31.37-17.93 57.65-45.25 72.74-78.22 3.15-7.19 6.49-14.38 8.07-22.12-4.08 5.26-6.46 12.29-12.64 15.57-4.56 2.41-9.78.85-14.44-.35l-7.78 12.83c7.1-3.81 16.26-5.7 23.27-.61-3.1 2.96-6.59 5.5-9.56 8.61-2.6 2.54-5.2 5.63-8.99 6.24-4.23.74-8.26-1.16-12.14-2.52-2.81 2.84-5.43 5.86-7.92 8.99 3.92-.25 8-.78 11.79.59 2.85.95 5.12 2.99 7.36 4.91-2.97 1.57-5.88 3.27-8.48 5.4-3.34 2.57-6.92 5.87-11.46 5.4-3.8-.33-6.34-4.03-9.92-4.62-3.92 2.31-7 5.75-10.38 8.74 4.12.12 8.46-.05 12.26 1.83 2.94 1.31 4.95 3.9 6.97 6.3-6.15 1.5-10.96 6.23-17.16 7.41-5.76.84-9.54-4.12-13.77-7.02-3.63 1.52-6.79 3.92-10.16 5.91 4.34.33 9.08.2 12.84 2.75 2.88 1.94 4.15 5.33 5.55 8.36-6.68 1.19-13.42 3.69-20.28 2.57-4.51-.58-6.21-5.25-8.19-8.66l-7.87 3.6c2.79 1.33 5.95 2.44 7.84 5.05 2.1 2.91 2.99 6.44 4.09 9.8-6.86.44-14.15 1.49-20.68-1.24-3.55-1.44-4.9-5.27-6.24-8.51-1.88.43-3.75.89-5.62 1.38 4.52 4.44 7.23 10.35 7.38 16.73-6.67-1.06-13.64-1.38-19.89-4.16-3.82-1.62-5.54-5.58-7.11-9.12-10.33.84-20.71.91-31.05.22-1.38 3.15-2.78 6.72-6.07 8.33-6.5 3.32-13.98 3.67-21.08 4.72.38-6.28 3.07-12.09 7.45-16.57-1.64-.33-3.26-.7-4.91-.85-2.33 2.7-3.41 6.81-7.12 8.03-6.45 2.51-13.53 1.46-20.22.87.94-3.22 1.69-6.63 3.75-9.36 1.85-2.46 4.69-3.81 7.33-5.25l-7.41-3.03c-1.88 3.09-3.65 7.03-7.59 7.82-6.81 1.54-13.6-1.04-20.22-2.38 1.4-3.29 2.45-7.27 5.78-9.15 3.44-1.53 7.33-1.35 10.99-1.85l-9.59-6.18c-3.22 2.91-6.07 7.38-10.89 7.42-3.75.3-6.85-2.1-9.94-3.81-2.98-1.76-6.38-2.51-9.65-3.51 1.77-2.26 3.52-4.71 6.15-6.03 3.85-2.14 8.34-2.44 12.66-2.69l-10.13-8.95c-3.16 2-6.2 4.68-10.05 5.13-4.01.3-7.04-2.73-9.96-5-2.93-2.5-6.44-4.15-9.81-5.96 2.48-1.91 4.98-3.94 8.01-4.87 3.78-1.25 7.82-.75 11.7-.4-2.53-3.02-4.6-6.62-7.96-8.8-3.99.68-7.78 2.81-11.92 2.39-3.89-.44-6.57-3.56-9.19-6.14-3.02-3.15-6.56-5.7-9.84-8.55 7.09-5.87 17.01-3.33 24.15 1.04-2.67-4.38-4.77-9.09-7.69-13.31-5.03-.02-10.28 2.87-15.1.18-7.4-4.01-10.19-12.57-14.73-19.14 5.08-1.34 11.07-3.15 15.75.26 4.73 3.61 7.31 9.22 11.48 13.39-1.25-3.32-2.51-6.65-4.09-9.82-1.79-4.02-6.51-5.58-8.41-9.51-1.72-3.65-1.98-7.79-1.77-11.76.57-7.57 2.91-15.05 7.14-21.39 3.92 6.47 6.48 13.83 6.74 21.43.38 5.75-1.48 11.43-.69 17.18 2.66-6.26 5.96-12.2 8.8-18.37 3.25 4.11 6.63 8.69 6.67 14.18.04 6.83-4.63 12.34-6.62 18.61-1.14 2.94.92 5.75 1.78 8.47 1.76-7.41 6.81-13.61 7.68-21.28 4.55 4.29 8.86 10.17 7.5 16.8-1.53 5.68-4.32 11.03-4.99 16.96-.77 2.9 1.95 4.95 3.38 7.11 1.99-5.41 3.57-11.03 3.63-16.84 3.96 2.8 8.35 5.8 9.83 10.69 2.23 6.45-1.24 12.9-1.53 19.36.96 2.24 3.1 3.65 4.81 5.28.72-5.55 1-11.14 1.29-16.72 3.39 1.03 7.3 2.03 9.15 5.38 4.27 6.9 2.94 15.33 3.98 22.98 1.87 3.38 5.85 4.85 9.02 6.76-.38-6.04-1.82-11.94-3.94-17.59 4.65.33 9.97.78 13.11 4.72 5.15 5.89 4.99 14.12 6.81 21.28 2.5 2.58 6.46 3.19 9.73 4.51-2.13-6.63-4.93-13-8.16-19.15 4.39.09 9.06-.24 13.1 1.83 2.88 1.45 4.55 4.39 5.79 7.24 2.43 5.61 5.12 11.25 9.13 15.91 2.74 1.3 5.85 1.42 8.81 1.89l-12.54-20.84c6.27-.64 14.35-1.85 18.7 3.93 4.27 6.4 7.59 13.71 13.52 18.82 3.17.64 6.42-.03 9.61-.22 2.96-4.4 6.26-8.59 8.93-13.18 1.97-3.22 3.93-6.83 7.48-8.52 4.66-2.12 9.92-1.32 14.84-.9-4.52 6.8-8.05 14.22-12.93 20.8 3.16-.74 6.65-.8 9.49-2.5 5.4-5.54 7.04-13.45 11.27-19.73 3.78-4.97 10.68-4.42 16.24-4.27-3.13 5.81-5.85 11.85-7.52 18.25 3.06-1.28 6.29-2.31 9.05-4.19 2.07-7.25 2.03-15.65 7.52-21.47 3.11-3.71 8.21-3.97 12.67-4.18-2.21 5.41-3.63 11.11-3.96 16.96 3.05-1.94 6.05-3.96 9.04-6 .41-7.56-.12-15.66 3.52-22.56 1.82-3.69 5.94-4.94 9.6-5.96.21 5.39.38 10.8 1.2 16.14 1.6-1.2 3.37-2.27 4.58-3.9.55-6.76-3.44-13.42-1.24-20.16 1.35-5 5.95-7.89 9.93-10.67-.18 5.79 1.35 11.42 3.55 16.72 1.21-1.78 3.06-3.37 3.41-5.57-.23-6.73-4.02-12.62-5.16-19.14-.85-6.09 2.84-11.48 6.9-15.61 2.21 7.19 6.36 13.57 8.53 20.78.85-2.42 2.68-4.91 1.78-7.56-1.97-6.57-6.54-12.41-6.7-19.47-.05-5.48 3.17-10.18 6.65-14.12 2.69 6.3 5.87 12.37 9.18 18.36-2.89-13.05-4.19-28.47 4.69-39.59 3.92 8.23 8.01 17.03 6.84 26.4-.24 4.19-2.91 7.57-5.21 10.87-2.84 3.94-4.44 8.59-5.83 13.2 3.32-3.93 5.78-8.95 10.54-11.38 4.53-2.07 9.57-.36 14.23.34 4.99-16.18 7.03-33.18 6.84-50.08.28-38.48-13.13-76.75-36.66-107.11-20.67-26.65-49.41-46.6-81.08-57.95-31.82-11.59-67.01-12.64-99.82-4.75zm190.71 33.59l52.37-39.53c7.28 8.37 13.81 17.37 20.08 26.51l-8.48 6.37-14.61-19.19c-4.06 3.01-8.13 6.01-12.02 9.24 4.02 6.36 9.33 11.8 13.07 18.36l-8.4 6.13c-4.93-5.55-8.54-12.22-13.82-17.44-4.91 2.78-9.08 6.65-13.64 9.93 4.38 7.19 10.23 13.34 14.7 20.47-2.86 2.15-5.77 4.25-8.76 6.22l-20.49-27.07zM386 237.84c4.54-.16 9.1-.95 13.63-.32 2.62.37 4.26 3.03 4.2 5.54.27 2.8-1.86 4.91-3.38 6.98 2.15 2.95 4.24 5.96 6 9.17-2.03-.23-4.62.31-5.82-1.8-2.58-3.42-5.02-7.58-9.85-7.75-.19 3.36-.25 6.72-.29 10.09-1.35 0-2.69 0-4.03-.01.07-7.3-.43-14.6-.46-21.9m3.96 2.99l.4 6.12c2.72-.33 5.61-.16 8.17-1.28.83-1.08 1.34-2.37 1.97-3.56-3.45-.84-7-1.16-10.54-1.28zm21.99-3.13c5.33.28 10.64.94 15.93 1.67l-.14 3.46-12.52-.83-.07 4.68 10.78 1.31.09 3.53-11.87-.93-.26 5.46c4 .53 8 .98 12.03 1.31l.13 3.84c-5.65-.5-11.27-1.2-16.86-2.13l2.76-21.37zm-45.59 2.76c3.9-1.1 8.7-.55 11.4 2.76 4 4.88 3.99 13.28-1.07 17.44-4.81 3.92-13.05 2.09-15.53-3.67-2.79-5.58-1.57-14.58 5.2-16.53m1.05 3.81c-6.08 3.02-4.44 14.34 2.65 14.76 5.43.75 7.77-5.97 6.28-10.25-.72-3.93-5.31-6.52-8.93-4.51zm66.31 2.79c.77-5.98 8.63-6.02 12.73-3.51 3.03 1.3 3.33 4.86 3.98 7.66l-3.23.16c-.93-1.61-1.72-3.33-2.97-4.71-1.89-.77-3.98-.74-5.98-.97l-.17 3.32c3.02 1.89 6.32 3.47 8.84 6.05 2.69 2.82 1.06 8.09-2.58 9.22-4.02 1.21-8.85.35-11.86-2.69-1.99-1.95-1.69-4.96-2.01-7.5l2.88.52c.93 1.71 1.66 3.6 3.07 4.99 2.22 1.7 5.59 1.91 7.91.26-.46-6.37-11.5-5.65-10.61-12.8zm-89.96-.03l4.23-1.23c3.21 6.58 5.79 13.44 8.26 20.33l-3.79.83c-1.55-4.09-3.21-8.15-5.05-12.13.17 5.2.59 10.4.42 15.6-5.76-.87-8.2-6.7-11.91-10.43 1.35 4.25 2.97 8.4 4.29 12.66l-3.32.79c-3.07-6.73-5.9-13.57-8.15-20.62 1.67-.27 3.33-.74 5.03-.75 3.88 3.44 6.67 7.93 10.53 11.41.02-5.5-.41-10.97-.54-16.46zm127.43 10.17c4-2.21 9.55-1.44 12.63 2 1.92 2.35 1.74 5.57 2.1 8.42l-3.95-.66c-.53-2.45-.35-5.93-3.31-6.8-7.51-3.45-13.46 9.19-7.5 13.75 2.88 1.97 6-.54 8.61-1.76l2.64 2.55c-4.18 5.32-13.41 4.44-16.76-1.31-2.6-5.74.15-13.09 5.54-16.19z"/><path d="M572.71 294.05c19.84-9.18 39.21-19.38 59.13-28.4l9.22 18.32c1.95 4.14 2.86 9.29.27 13.38-6.2 9.74-20.21 14.78-30.64 8.76-5.76 8.91-13.1 16.62-20.35 24.31-1.5-3-3.57-5.86-4.12-9.23 2.89-4.92 7.24-8.76 10.92-13.06 2.87-3.32 6.72-6.48 7.2-11.12-.45-2.41-1.89-4.45-3-6.58-8.38 3.83-16.5 8.21-25.01 11.74l-3.62-8.12m38.67-8.78c1.72 3.74 2.84 7.78 5.03 11.29 4.13 6.02 14.37 1.61 15.72-4.64.07-5.16-3.79-9.19-6.12-13.48-4.91 2.2-9.75 4.56-14.63 6.83zm-125.06-4.02c2.06-5.63 6.76-9.69 10.42-14.27l2.62 2.32c-2.62 4.35-6.11 8.1-8.79 12.39-2.43 3.86 3.47 8.69 6.89 5.86 4-3.45 6.15-8.48 9.44-12.55l3.16 2.2c-3.38 4.8-5.93 10.52-10.83 14-6.17 3.85-14.98-3.05-12.91-9.95zm-183.98-12.03c4.28-1.65 9.45-.5 12.6 2.85 3.5 3.57 4.48 9.54 1.94 13.91-2.55 4.02-7.93 5.79-12.44 4.52-8.86-2.53-11.72-17.83-2.1-21.28m2.97 3.13c-5.02.33-6.49 6.55-3.88 10.22 1.85 4.31 8.24 6.3 11.41 2.26 4.14-5.18-1.16-13.45-7.53-12.48zm-140.98-1.41l66.25 15.16-4.03 8.73c-5.88-1.17-11.56-3.23-17.51-4.02-1.94-.56-2.64 1.57-3.54 2.8-1.67 2.9-3.51 5.83-4.26 9.13 3.67 5.22 10 7.9 13.52 13.24-.86 2.75-2.42 5.2-3.78 7.72-9.51-7.64-18.31-16.14-27.42-24.26l-23.11-21.15 3.88-7.35m14.58 12.23c4.47 4.36 9.13 8.52 13.85 12.61l4.24-8c-5.98-1.74-11.99-3.38-18.09-4.61zm212.69 11.44c2.78-8.03 4.95-16.27 8.11-24.17 6.99 19.29 12.81 38.99 19.46 58.4l10.09 30.85 93.21.27c-5.8 5.15-12.34 9.33-18.49 14.03l-56.22 41.35c3.17 11.76 7.42 23.19 11.08 34.79l17.38 54.16c-6.26-3.78-12.02-8.31-17.97-12.53l-58.36-41.83-50.86 37.14c-8.41 5.78-16.37 12.24-25.17 17.42 2.52-9.68 6.03-19.07 9.01-28.61l17.74-54.3c.67-2.56 2.55-5.95-.55-7.64-17.97-13.78-36.33-27.07-54.61-40.45-6.07-4.45-12.43-8.54-18.11-13.51 31.03-.64 62.08-.01 93.12-.31l21.14-65.06m-16.19 63.83c-.52 2.08-1.8 4.51-.31 6.49 2.77 4.47 6.21 8.47 9.23 12.77 5.15 6.85 9.81 14.06 15.31 20.64.18-12.12.12-24.23-.12-36.34l.04-77.11-24.15 73.55m26.17 40.55l84.05-27.35c7.26-2.61 14.81-4.42 21.86-7.57-5.48-.49-10.99-.36-16.49-.34-21.36.03-42.71-.03-64.06.03l-25.36 35.23m-110.55-33.96l57.67 42.28c2.75 1.92 5.23 4.38 8.42 5.59 4-.34 7.71-2.07 11.52-3.22 9.68-3.35 19.63-5.89 29.17-9.64-18.54-6.75-37.47-12.38-56.18-18.68l-50.6-16.33m54.55 110.55c-3.72 5.22-7.8 10.21-10.99 15.8 6.06-3.35 11.39-7.8 17.05-11.75l47.95-34.85c-.17-14.61-.09-29.21.16-43.81l-54.17 74.61m55.64-74.8l36.7 50.26 30.14 40.87-24.6-75.36c-.54-2.81-3.59-3.34-5.86-4.16l-36.38-11.61zM284.66 283.97l3.07-2.04c4.97 4.97 9.58 10.3 14.56 15.26l-2.33 3.44c-5.53-5.14-10.64-10.72-15.3-16.66zm215.98 14.92c4.73-5.49 10.21-10.25 15.46-15.23l2.92 2.45c-4.16 4.5-8.65 8.67-12.99 12.99l6.93 7.16-2.7 2.67c-3.31-3.24-6.52-6.6-9.62-10.04zm-224.98-5.17c2.57-1.16 5.47-.73 8.21-.76l-.3 3.46c-2.51.41-5.39.08-7.54 1.61-3.79 4.12-1.32 11.75 4.18 12.9 5.19 1.73 11.02-4.7 7.73-9.48-2.12 1.79-4.44 3.42-7.24 3.89 1.06-3.76 3.6-6.75 6.27-9.47 2.31 1.94 4.6 3.92 6.84 5.95-1.09 4.28-2.16 9.21-6.16 11.77-6.72 4.19-16.69-.91-17.64-8.66-.61-4.42 1.67-9.14 5.65-11.21zm250.71 5.39l2.81-1.82c3.79 4.61 7.42 9.36 10.74 14.33l-3 1.69-4.18-4.86c-5.05 3.28-9.8 6.99-14.57 10.65a105.16 105.16 0 0 1-2.42-3.25c4.71-3.74 9.56-7.29 14.31-10.99l-3.69-5.75zm-264.31 12.08c6.23 3.73 12.2 7.86 18.39 11.66l-1.78 3.59c-6.48-3.71-12.68-7.87-18.76-12.18l2.15-3.07zm279.64 6.53c1.67-1.2 2.7 1.19 3.93 1.99-4.49 2.9-9.49 4.96-13.8 8.12-3.65 2.3-.16 9.11 3.81 7.83 4.44-1.1 7.97-4.19 12.05-6.09 1.66-1.28 3.03.85 4.39 1.62-5.31 3.02-9.95 7.82-16.2 8.77-7.93 1.11-12.82-10.86-6.55-15.65 3.75-2.82 8.15-4.6 12.37-6.59zm97.72 2.84c6.87-1.11 15.12.75 18.86 7.15 3.26 6.04 3.26 14.62-1.91 19.64-3.77 3.74-9.02 5.28-13.98 6.73l-2.58-7.73c4.13-1.93 10.06-3.93 10.15-9.41.25-6.13-7.73-9.84-12.55-6.48-3.01 2.14-3.11 6.21-3.44 9.55-.36 5.1-.45 10.83-4.15 14.82-7 7.58-19.39 9.67-28.49 4.83-10.15-5.45-10.63-22.12-1.08-28.39 3.94-2.87 8.66-4.35 13.34-5.51.77 2.36 1.71 4.69 2.26 7.13-3.29 2.76-8.2 3.64-10.32 7.7-2.42 4.37-.79 11.46 4.53 12.72 4.13.72 9.7-.48 11.24-4.91 1.72-5.73.76-12.06 3.51-17.52 2.51-5.83 8.44-9.54 14.61-10.32zm-439 2.22c3.48.81 6.91 1.83 10.32 2.92-2.57 9.35-5.61 18.55-8.45 27.82l-62.9-19.22 2.56-8.34c17.59 4.81 34.89 10.61 52.37 15.81 2.26-6.25 4.01-12.68 6.1-18.99zm72.24 5.3l3.53 1.09c-1.93 4.35-4.18 8.55-6.41 12.75-6.79-2.84-13.03-6.79-19.65-9.99l1.9-3.55 16.05 8.28c1.6-2.82 3.14-5.67 4.58-8.58zm-25.12 9.7l2.6 2.36c-.66 3.77-2.35 7.26-3.62 10.85l4.54 1.58c1.43-3.42 2.79-6.87 4.06-10.35l3.32.97c-1.12 3.67-2.41 7.28-3.66 10.91l5.09 1.94c1.57-3.74 3.04-7.52 4.37-11.35l3.68.57c-1.66 5.45-3.85 10.72-5.99 15.99-6.53-2.64-13.36-4.59-19.69-7.7.09-5.53 3.56-10.57 5.3-15.77zm287.23 9.45c6.76-2.19 13.29-5.15 20.25-6.67 2.37 2.98 3.19 6.88 3.82 10.57.32 2.63.58 6.29-2.24 7.7-2.92 1.56-6.01-.34-8.76-1.36-2.06 3.07-4.38 5.99-7.09 8.52-.28-1.58-.69-3.15-.65-4.76 1.41-2.63 3.69-4.7 4.9-7.44.47-1.87.3-3.82.36-5.73-3.17.93-6.31 1.96-9.44 2.97l-1.15-3.8m13.44-.22c.93 2.9 1.89 5.79 2.95 8.66 1.52-.66 4.21-.66 4.3-2.85-.05-2.72-1.3-5.23-2.2-7.74l-5.05 1.93zM238.44 365.4c1.37-3.11 5.6-3.83 8.42-2.39 1.72 1.09 2.66 2.99 3.84 4.58 3.46-1.44 6.96-2.77 10.58-3.76-.55 1.53-1.01 3.11-1.81 4.55-2.62 1.52-5.69 2.14-8.21 3.86-1.4 1.25-2.11 3.06-3.06 4.64 3.17.9 6.38 1.66 9.61 2.39l-.84 3.81c-7.07-1.28-14.09-2.83-21.11-4.39.67-4.45.79-9.1 2.58-13.29m4.91.05a28.34 28.34 0 0 0-3.8 10.09l5.58.82c.55-2.62 1.51-5.21 1.42-7.91-.78-1.28-2.04-2.12-3.2-3zm356.2 5.82l65.09-7.89.69 9.04-65.2 7.66-.58-8.81zm-57.93-4.99c7.89 1.13 15.74 2.48 23.55 4.08-.52 1.62-.32 3.78-1.96 4.79-5.65 4.06-11.61 7.66-17.5 11.36l-1.63-3.56 5.9-4.21-1.32-7.26-6.97-1.38-.07-3.82m10.55 5.64l1.44 4.73 5.51-3.5-6.95-1.23zm-420.12 4.68l10.96.17c-.02 8-.46 16.01-.22 24.01 5.07.24 10.15.28 15.23.19.35-7.45.12-14.9.6-22.34 3.58-.06 7.16-.06 10.74.01l-.33 22.53c5.81.45 11.63.4 17.45.36.45-8.31.63-16.63.52-24.96l11.03.17c-.18 11.33-.69 22.66-.43 34l-65.77-.99c-.37-11.05.34-22.1.22-33.15zm524.29 8.26l10.79-.15-.55 36.04-10.7-.2c-.16-4.44-.18-8.88-.1-13.31-18.25-1.04-36.54-.5-54.8-1.27l.09-8.71c18.3-.15 36.6.64 54.9.74l.37-13.14zm-495.11 39.37c11.15-2.43 24.27-4.85 34.19 2.38 7.26 6.99 6.64 18.03 8.63 27.22l-64.48 12.18c-.98-9.11-5.84-18.56-2.21-27.62 4.64-8.68 14.91-11.97 23.87-14.16m-11.32 14.72c-5.22 3.99-2.15 11.16-1.09 16.41l42.91-8.41c-.85-4.15-.68-8.83-3.31-12.36-3.73-3.72-9.53-3.51-14.42-3.38-8.42.65-17.26 2.5-24.09 7.74zm478.84-.17c12.14-3.23 24.46-5.81 36.79-8.24-.49 3.35-1.07 6.7-1.65 10.05l-27.07 5.77c7.28 5.79 15.25 10.62 22.87 15.92l-1.99 9.85a475.37 475.37 0 0 1-31.48-22.37c-3.09-2.36-7.05-2.84-10.78-3.35-6.38-.8-12.65-2.24-18.94-3.49a200.12 200.12 0 0 1 1.6-8.8c6.37 1.02 12.67 2.4 18.96 3.84 3.81.82 7.8 1.96 11.69.82zm-112.7 150.13c3.82 2.29 7.31 5.07 10.53 8.14-2.71 1.73-5.45 3.42-8.23 5.03-.89-4.37-1.72-8.76-2.3-13.17zm-187.98 33.94c2.55-3.68 5.37-7.18 8.58-10.31.49 4.3.75 8.64.79 12.98l-9.37-2.67z"/></svg>