<?xml version="1.0" encoding="UTF-8"?>
<!DOCTYPE svg  PUBLIC '-//W3C//DTD SVG 1.1//EN'  'http://www.w3.org/Graphics/SVG/1.1/DTD/svg11.dtd'>
<svg enable-background="new 0 0 74.488 75.079" version="1.1" viewBox="0 0 74.488 75.079" xml:space="preserve" xmlns="http://www.w3.org/2000/svg">
	<rect x="19.235" y="19.699" width="36" height="36"/>
	<circle cx="19.235" cy="19.699" r="18" fill="#48C4D3"/>
	
		<circle cx="19.195" cy="19.648" r="18" fill="#48C4D3"/>
		<path d="m19.323 37.598c9.918-0.027 17.953-8.071 17.953-17.997 0-9.925-8.034-17.972-17.952-17.998l-1e-3 35.995z" fill="#fff"/>
		<path d="M37.192,19.601C37.166,9.682,29.12,1.648,19.195,1.648S1.224,9.682,1.198,19.601H37.192z"/>
	
	
		<circle cx="55.315" cy="19.651" r="18" fill="#48C4D3"/>
		<path d="m37.319 19.651c0.027 9.918 8.07 17.952 17.996 17.952 9.925 0 17.972-8.034 17.998-17.952h-35.994z" fill="#fff"/>
		<path d="m55.315 37.648c9.919-0.027 17.953-8.072 17.953-17.997s-8.034-17.972-17.952-17.998l-1e-3 35.995z"/>
	
	
		<circle cx="55.315" cy="55.649" r="18" fill="#48C4D3"/>
		<path d="M55.269,37.605c-9.918,0.027-17.953,8.072-17.953,17.997s8.035,17.972,17.953,17.999V37.605z" fill="#fff"/>
		<path d="M37.317,55.649c0.028,9.919,8.073,17.952,17.999,17.952c9.923,0,17.97-8.033,17.997-17.952H37.317z"/>
	
	
		<circle cx="19.315" cy="55.725" r="18" fill="#48C4D3"/>
		<path d="m37.313 55.628c-0.027-9.919-8.072-17.953-17.997-17.953-9.926 0-17.972 8.034-17.999 17.952l35.996 1e-3z" fill="#fff"/>
		<path d="M19.268,37.682C9.349,37.709,1.315,45.754,1.315,55.679S9.349,73.65,19.268,73.677V37.682z"/>
</svg>
