<svg width="337" height="337" viewBox="0 0 337 337" fill="none" xmlns="http://www.w3.org/2000/svg">
<path d="M321.772 168.26C321.772 253.048 253.04 321.782 168.255 321.782C83.4697 321.782 14.7377 253.048 14.7377 168.26C14.7377 83.4722 83.4697 14.7381 168.255 14.7381C253.04 14.7381 321.772 83.4722 321.772 168.26Z" fill="#ED7042"/>
<path fill-rule="evenodd" clip-rule="evenodd" d="M336.51 168.26C336.51 261.187 261.179 336.52 168.255 336.52C75.3303 336.52 0 261.187 0 168.26C0 75.3325 75.3303 0 168.255 0C261.179 0 336.51 75.3325 336.51 168.26ZM168.255 321.782C253.04 321.782 321.772 253.048 321.772 168.26C321.772 83.4722 253.04 14.7381 168.255 14.7381C83.4697 14.7381 14.7377 83.4722 14.7377 168.26C14.7377 253.048 83.4697 321.782 168.255 321.782Z" fill="#F4E8D8"/>
<path d="M243.344 146.6C243.344 154.377 241.99 161.744 239.572 168.331C207.964 168.331 207.964 168.331 168.735 168.331C166.317 161.744 164.964 154.377 164.964 146.6C164.964 118.597 182.51 95.8952 204.154 95.8952C225.798 95.8952 243.344 118.597 243.344 146.6Z" fill="white" stroke="#222222" stroke-width="4" stroke-linecap="round"/>
<path d="M239.572 168.331C241.99 161.745 243.343 154.377 243.343 146.6C243.343 116.501 220.148 99.2646 218.374 99.2877C218.318 99.2885 218.287 99.3119 218.238 99.3394C217.074 99.9826 201.231 108.98 195.989 124.87L209.572 131.025C210.509 131.449 210.107 132.526 209.009 132.536C203.616 132.586 194.461 132.753 194.356 133.32C191.09 151.027 196.533 168.331 196.533 168.331H239.572Z" fill="#222222"/>
<path d="M170.549 146.6C170.549 154.377 169.196 161.744 166.778 168.331C135.169 168.331 135.169 168.331 95.9406 168.331C93.5223 161.744 92.1692 154.377 92.1692 146.6C92.1692 118.597 109.715 95.8952 131.359 95.8952C153.003 95.8952 170.549 118.597 170.549 146.6Z" fill="white" stroke="#222222" stroke-width="4" stroke-linecap="round"/>
<path d="M166.778 168.331C169.196 161.745 170.549 154.377 170.549 146.6C170.549 116.501 147.353 99.2646 145.58 99.2877C145.523 99.2885 145.493 99.3119 145.444 99.3394C144.28 99.9826 128.437 108.98 123.195 124.87L136.778 131.025C137.714 131.449 137.313 132.526 136.214 132.536C130.822 132.586 121.666 132.753 121.562 133.32C118.296 151.027 123.739 168.331 123.739 168.331H166.778Z" fill="#222222"/>
<ellipse cx="168.257" cy="168.479" rx="150.173" ry="8.50982" fill="#EA6838"/>
<path d="M19.085 168.479L317.429 168.479" stroke="#ED5E29" stroke-opacity="0.5" stroke-linecap="round"/>
<mask id="mask0_117_2" style="mask-type:alpha" maskUnits="userSpaceOnUse" x="97" y="185" width="144" height="61">
<path d="M233.933 221.253C230.571 224.941 224.307 229.941 214.305 234.613C200.375 241.12 177.981 248.719 144.704 242.115C119.746 237.163 107.197 224.064 103.478 219.062C96.9692 210.309 93.4166 190.462 113.273 186.907C125.081 184.793 129 189.806 136.806 192.25C144.748 194.736 153.953 194.832 180.876 189.996C197.293 187.048 229.351 183.54 237.91 198.064C240.772 202.922 240.123 208.561 238.86 212.573C237.855 215.765 236.187 218.779 233.933 221.253Z" fill="#222222" stroke="#222222" stroke-linecap="round"/>
</mask>
<g mask="url(#mask0_117_2)">
<path d="M233.933 221.253C230.571 224.941 224.307 229.941 214.305 234.613C200.375 241.12 177.981 248.719 144.704 242.115C119.746 237.163 107.197 224.064 103.478 219.062C96.9692 210.309 93.4166 190.462 113.273 186.907C125.081 184.793 129 189.806 136.806 192.25C144.748 194.736 153.953 194.832 180.876 189.996C197.293 187.048 229.351 183.54 237.91 198.064C240.772 202.922 240.123 208.561 238.86 212.573C237.855 215.765 236.187 218.779 233.933 221.253Z" fill="#222222" stroke="#222222" stroke-linecap="round"/>
<path d="M145.848 238.657C145.433 243.327 146.717 245.267 147.804 246.073C148.598 246.661 149.649 246.64 150.637 246.638L188.844 246.567C197.422 246.551 205.694 241.636 207.422 233.233C209.356 223.828 193.935 225.459 187.889 226.099L187.731 226.116C175.503 227.408 173.173 240.28 174.602 234.937C176.389 228.256 175.147 227.819 171.798 226.795C165.367 224.83 158.309 225.621 152.047 228.852C147.494 231.201 146.281 235.877 145.991 237.502C145.923 237.884 145.882 238.272 145.848 238.657Z" fill="#DA5353" stroke="#222222" stroke-linecap="round"/>
<path d="M123.131 211.253C118.325 210.056 102.384 205.724 102.658 200.975L102.74 191.472C105.124 188.379 108.714 185.994 113.857 184.868C119.135 183.712 122.83 184.231 125.994 185.409C129.925 186.872 133.037 189.35 137.351 190.893C141.304 192.307 145.578 193.021 152.222 192.645C158.658 192.28 167.317 190.892 180.062 188.128C180.525 188.027 180.994 187.925 181.468 187.821C188.111 186.361 197.306 184.771 206.463 184.506C215.08 184.257 223.664 185.181 230.058 188.495C230.165 192.33 231.344 197.24 229.376 200.315C224.146 208.485 215.355 208.39 206.808 210.704C205.399 211.085 205.506 209.226 205.506 209.226C205.506 209.226 205.361 211.198 204.425 211.502C195.851 214.281 177.95 215.589 177.95 215.589C177.47 216.142 176.764 216.497 175.993 216.496L156.084 216.478C150.855 216.368 150.882 215.902 150.989 214.038C150.989 214.038 150.845 216.547 148.526 216.234C142.496 215.42 135.973 215.045 125.391 212.099C124.605 211.88 124.566 210.182 124.566 210.182C124.524 210.913 123.843 211.431 123.131 211.253Z" fill="white"/>
<path d="M125.994 185.409C129.925 186.872 133.037 189.35 137.351 190.893C141.304 192.307 145.578 193.021 152.222 192.645M125.994 185.409C122.83 184.231 119.135 183.712 113.857 184.868C108.714 185.994 105.124 188.379 102.74 191.472L102.658 200.975C102.384 205.724 118.325 210.056 123.131 211.253C123.843 211.431 124.524 210.913 124.566 210.182M125.994 185.409L124.566 210.182M124.566 210.182C124.566 210.182 124.605 211.88 125.391 212.099C135.973 215.045 142.496 215.42 148.526 216.234C150.845 216.547 150.989 214.038 150.989 214.038M152.222 192.645L150.989 214.038M152.222 192.645C158.658 192.28 167.317 190.892 180.062 188.128M150.989 214.038C150.882 215.902 150.855 216.368 156.084 216.478L175.993 216.496C176.764 216.497 177.47 216.142 177.95 215.589M180.062 188.128C180.525 188.027 180.994 187.925 181.468 187.821C188.111 186.361 197.306 184.771 206.463 184.506M180.062 188.128L178.575 214.102C178.533 214.664 178.303 215.181 177.95 215.589M206.463 184.506L205.506 209.226M206.463 184.506C215.08 184.257 223.664 185.181 230.058 188.495C230.165 192.33 231.344 197.24 229.376 200.315C224.146 208.485 215.355 208.39 206.808 210.704C205.399 211.085 205.506 209.226 205.506 209.226M205.506 209.226C205.506 209.226 205.361 211.198 204.425 211.502C195.851 214.281 177.95 215.589 177.95 215.589" stroke="#222222" stroke-linecap="round"/>
</g>
<ellipse cx="67.5421" cy="187.134" rx="6.14069" ry="6.14087" fill="#EA6838"/>
<ellipse cx="55.2603" cy="204.329" rx="6.14069" ry="6.14087" fill="#EA6838"/>
<ellipse cx="79.8231" cy="204.329" rx="6.14069" ry="6.14087" fill="#EA6838"/>
<ellipse cx="117.221" cy="274.435" rx="6.14069" ry="6.14087" transform="rotate(-30.6504 117.221 274.435)" fill="#EA6838"/>
<ellipse cx="115.421" cy="295.488" rx="6.14069" ry="6.14087" transform="rotate(-30.6504 115.421 295.488)" fill="#EA6838"/>
<ellipse cx="136.553" cy="282.966" rx="6.14069" ry="6.14087" transform="rotate(-30.6504 136.553 282.966)" fill="#EA6838"/>
<ellipse cx="194.244" cy="257.74" rx="6.14069" ry="6.14087" transform="rotate(-30.6504 194.244 257.74)" fill="#EA6838"/>
<ellipse cx="192.444" cy="278.793" rx="6.14069" ry="6.14087" transform="rotate(-30.6504 192.444 278.793)" fill="#EA6838"/>
<ellipse cx="213.576" cy="266.271" rx="6.14069" ry="6.14087" transform="rotate(-30.6504 213.576 266.271)" fill="#EA6838"/>
<ellipse cx="267.773" cy="187.134" rx="6.14069" ry="6.14087" fill="#EA6838"/>
<ellipse cx="255.491" cy="204.329" rx="6.14069" ry="6.14087" fill="#EA6838"/>
<ellipse cx="280.054" cy="204.329" rx="6.14069" ry="6.14087" fill="#EA6838"/>
<ellipse cx="65.0948" cy="88.5443" rx="6.14069" ry="6.14087" transform="rotate(-30.6504 65.0948 88.5443)" fill="#EA6838"/>
<ellipse cx="63.295" cy="109.598" rx="6.14069" ry="6.14087" transform="rotate(-30.6504 63.295 109.598)" fill="#EA6838"/>
<ellipse cx="84.4263" cy="97.0756" rx="6.14069" ry="6.14087" transform="rotate(-30.6504 84.4263 97.0756)" fill="#EA6838"/>
<ellipse cx="258.318" cy="76.5305" rx="6.14069" ry="6.14087" transform="rotate(-30.6504 258.318 76.5305)" fill="#EA6838"/>
<ellipse cx="256.518" cy="97.5837" rx="6.14069" ry="6.14087" transform="rotate(-30.6504 256.518 97.5837)" fill="#EA6838"/>
<ellipse cx="277.649" cy="85.0617" rx="6.14069" ry="6.14087" transform="rotate(-30.6504 277.649 85.0617)" fill="#EA6838"/>
<path d="M86.1102 101.155C85.033 97.0387 87.4969 92.8283 91.6136 91.7511L141.016 78.8237C145.133 77.7465 149.344 80.2105 150.421 84.3271V84.3271C151.498 88.4438 149.034 92.6543 144.917 93.7315L95.5145 106.659C91.3979 107.736 87.1874 105.272 86.1102 101.155V101.155Z" fill="#222222"/>
<path d="M86.1102 101.155C85.033 97.0387 87.4969 92.8283 91.6136 91.7511L141.016 78.8237C145.133 77.7465 149.344 80.2105 150.421 84.3271C151.498 88.4438 149.034 92.6543 144.917 93.7315L95.5145 106.659C91.3979 107.736 87.1874 105.272 86.1102 101.155Z" fill="#222222"/>
<path d="M240.525 72.1219C241.602 68.0052 239.138 63.7948 235.021 62.7175L185.618 49.7902C181.502 48.713 177.291 51.177 176.214 55.2936V55.2936C175.137 59.4103 177.601 63.6207 181.717 64.698L231.12 77.6253C235.237 78.7025 239.447 76.2385 240.525 72.1219V72.1219Z" fill="#222222"/>
<path d="M240.525 72.1219C241.602 68.0052 239.138 63.7948 235.021 62.7175L185.618 49.7902C181.502 48.713 177.291 51.177 176.214 55.2936C175.137 59.4103 177.601 63.6207 181.717 64.698L231.12 77.6253C235.237 78.7025 239.447 76.2386 240.525 72.1219Z" fill="#222222"/>
</svg>
